<svg xmlns="http://www.w3.org/2000/svg" viewBox="0 0 24 24" fill="currentColor">
    <path d="M12 4a1 1 0 0 1 1 1v2a1 1 0 0 1-2 0V5a1 1 0 0 1 1-1zm0 13a5 5 0 1 1 0-10 5 5 0 0 1 0 10zm0 3a1 1 0 0 1 1 1v2a1 1 0 0 1-2 0v-2a1 1 0 0 1 1-1zm8-8a1 1 0 0 1 1 1h2a1 1 0 1 1 0 2h-2a1 1 0 0 1-1-1zm-16 0a1 1 0 0 1 1 1H3a1 1 0 1 1 0-2h2a1 1 0 0 1 1 1zm12.071-7.071a1 1 0 0 1 1.414 0l1.414 1.414a1 1 0 1 1-1.414 1.414L16.657 5.343a1 1 0 0 1 0-1.414zM5.343 16.657a1 1 0 0 1 1.414 0l1.414 1.414a1 1 0 1 1-1.414 1.414L5.343 18.071a1 1 0 0 1 0-1.414zm12.071 0a1 1 0 0 1 1.414 0l1.414 1.414a1 1 0 1 1-1.414 1.414L16.657 18.071a1 1 0 0 1 0-1.414zM5.343 5.343a1 1 0 0 1 1.414 0L8.171 6.757a1 1 0 1 1-1.414 1.414L5.343 6.757a1 1 0 0 1 0-1.414z"/>
</svg>
